M48
; DRILL file {KiCad 8.0.5} date 2024-10-19T20:06:34+0530
; FORMAT={-:-/ absolute / inch / decimal}
; #@! TF.CreationDate,2024-10-19T20:06:34+05:30
; #@! TF.GenerationSoftware,Kicad,Pcbnew,8.0.5
; #@! TF.FileFunction,Plated,1,2,PTH
FMAT,2
INCH
; #@! TA.AperFunction,Plated,PTH,ViaDrill
T1C0.0118
; #@! TA.AperFunction,Plated,PTH,ComponentDrill
T2C0.0197
; #@! TA.AperFunction,Plated,PTH,ComponentDrill
T3C0.0295
; #@! TA.AperFunction,Plated,PTH,ComponentDrill
T4C0.0394
%
G90
G05
T1
X2.5394Y-4.5472
X2.6142Y-4.0945
X2.685Y-4.4252
X2.7126Y-4.7992
X2.9114Y-3.5197
X3.0315Y-1.7323
X3.0315Y-1.9291
X3.2008Y-3.7815
X3.2638Y-3.9665
X3.2953Y-3.5276
X3.6713Y-3.9665
X3.7362Y-3.7835
T3
X2.5866Y-4.3268
X2.5866Y-4.4055
T4
X2.5827Y-4.878
X2.5827Y-4.978
X2.5827Y-5.078
X2.5827Y-5.178
X2.5827Y-5.278
X2.5827Y-5.378
X2.6646Y-1.7043
X2.6646Y-1.8043
X2.6646Y-1.9043
X2.6646Y-2.0043
X2.6646Y-2.1043
X2.6646Y-2.2043
X2.6646Y-2.3043
X2.6646Y-2.4043
X2.6646Y-2.5043
X2.6646Y-2.6043
X2.6646Y-2.7043
X2.6646Y-2.8043
X2.6646Y-2.9043
X2.6646Y-3.0043
X2.6646Y-3.1043
X2.7646Y-1.7043
X2.7646Y-1.8043
X2.7646Y-1.9043
X2.7646Y-2.0043
X2.7646Y-2.1043
X2.7646Y-2.2043
X2.7646Y-2.3043
X2.7646Y-2.4043
X2.7646Y-2.5043
X2.7646Y-2.6043
X2.7646Y-2.7043
X2.7646Y-2.8043
X2.7646Y-2.9043
X2.7646Y-3.0043
X2.7646Y-3.1043
T2
G00X3.2945Y-3.8693
M15
G01X3.2945Y-3.8969
M16
G05
G00X3.6346Y-3.8693
M15
G01X3.6346Y-3.8969
M16
G05
M30
