%TF.GenerationSoftware,KiCad,Pcbnew,8.0.5*%
%TF.CreationDate,2024-10-19T20:06:34+05:30*%
%TF.ProjectId,AirOwl_v1,4169724f-776c-45f7-9631-2e6b69636164,rev?*%
%TF.SameCoordinates,Original*%
%TF.FileFunction,Soldermask,Bot*%
%TF.FilePolarity,Negative*%
%FSLAX46Y46*%
G04 Gerber Fmt 4.6, Leading zero omitted, Abs format (unit mm)*
G04 Created by KiCad (PCBNEW 8.0.5) date 2024-10-19 20:06:34*
%MOMM*%
%LPD*%
G01*
G04 APERTURE LIST*
G04 Aperture macros list*
%AMRoundRect*
0 Rectangle with rounded corners*
0 $1 Rounding radius*
0 $2 $3 $4 $5 $6 $7 $8 $9 X,Y pos of 4 corners*
0 Add a 4 corners polygon primitive as box body*
4,1,4,$2,$3,$4,$5,$6,$7,$8,$9,$2,$3,0*
0 Add four circle primitives for the rounded corners*
1,1,$1+$1,$2,$3*
1,1,$1+$1,$4,$5*
1,1,$1+$1,$6,$7*
1,1,$1+$1,$8,$9*
0 Add four rect primitives between the rounded corners*
20,1,$1+$1,$2,$3,$4,$5,0*
20,1,$1+$1,$4,$5,$6,$7,0*
20,1,$1+$1,$6,$7,$8,$9,0*
20,1,$1+$1,$8,$9,$2,$3,0*%
%AMFreePoly0*
4,1,19,0.500000,-0.750000,0.000000,-0.750000,0.000000,-0.744911,-0.071157,-0.744911,-0.207708,-0.704816,-0.327430,-0.627875,-0.420627,-0.520320,-0.479746,-0.390866,-0.500000,-0.250000,-0.500000,0.250000,-0.479746,0.390866,-0.420627,0.520320,-0.327430,0.627875,-0.207708,0.704816,-0.071157,0.744911,0.000000,0.744911,0.000000,0.750000,0.500000,0.750000,0.500000,-0.750000,0.500000,-0.750000,
$1*%
%AMFreePoly1*
4,1,19,0.000000,0.744911,0.071157,0.744911,0.207708,0.704816,0.327430,0.627875,0.420627,0.520320,0.479746,0.390866,0.500000,0.250000,0.500000,-0.250000,0.479746,-0.390866,0.420627,-0.520320,0.327430,-0.627875,0.207708,-0.704816,0.071157,-0.744911,0.000000,-0.744911,0.000000,-0.750000,-0.500000,-0.750000,-0.500000,0.750000,0.000000,0.750000,0.000000,0.744911,0.000000,0.744911,
$1*%
G04 Aperture macros list end*
%ADD10C,0.010000*%
%ADD11R,1.700000X1.700000*%
%ADD12O,1.700000X1.700000*%
%ADD13RoundRect,0.250000X0.450000X-0.350000X0.450000X0.350000X-0.450000X0.350000X-0.450000X-0.350000X0*%
%ADD14O,1.152400X1.852400*%
%ADD15RoundRect,0.250000X-0.650000X1.000000X-0.650000X-1.000000X0.650000X-1.000000X0.650000X1.000000X0*%
%ADD16FreePoly0,90.000000*%
%ADD17FreePoly1,90.000000*%
%ADD18C,1.800000*%
%ADD19RoundRect,0.250000X-0.625000X0.350000X-0.625000X-0.350000X0.625000X-0.350000X0.625000X0.350000X0*%
%ADD20O,1.750000X1.200000*%
G04 APERTURE END LIST*
D10*
%TO.C,J4*%
X85763500Y-100483500D02*
X84736500Y-100483500D01*
X84736500Y-98366500D01*
X85763500Y-98366500D01*
X85763500Y-100483500D01*
G36*
X85763500Y-100483500D02*
G01*
X84736500Y-100483500D01*
X84736500Y-98366500D01*
X85763500Y-98366500D01*
X85763500Y-100483500D01*
G37*
X86943500Y-100483500D02*
X86016500Y-100483500D01*
X86016500Y-98366500D01*
X86943500Y-98366500D01*
X86943500Y-100483500D01*
G36*
X86943500Y-100483500D02*
G01*
X86016500Y-100483500D01*
X86016500Y-98366500D01*
X86943500Y-98366500D01*
X86943500Y-100483500D01*
G37*
X87913500Y-100483500D02*
X87086500Y-100483500D01*
X87086500Y-98366500D01*
X87913500Y-98366500D01*
X87913500Y-100483500D01*
G36*
X87913500Y-100483500D02*
G01*
X87086500Y-100483500D01*
X87086500Y-98366500D01*
X87913500Y-98366500D01*
X87913500Y-100483500D01*
G37*
X88913500Y-100483500D02*
X88086500Y-100483500D01*
X88086500Y-98366500D01*
X88913500Y-98366500D01*
X88913500Y-100483500D01*
G36*
X88913500Y-100483500D02*
G01*
X88086500Y-100483500D01*
X88086500Y-98366500D01*
X88913500Y-98366500D01*
X88913500Y-100483500D01*
G37*
X89983500Y-100483500D02*
X89056500Y-100483500D01*
X89056500Y-98366500D01*
X89983500Y-98366500D01*
X89983500Y-100483500D01*
G36*
X89983500Y-100483500D02*
G01*
X89056500Y-100483500D01*
X89056500Y-98366500D01*
X89983500Y-98366500D01*
X89983500Y-100483500D01*
G37*
X91263500Y-100483500D02*
X90236500Y-100483500D01*
X90236500Y-98366500D01*
X91263500Y-98366500D01*
X91263500Y-100483500D01*
G36*
X91263500Y-100483500D02*
G01*
X90236500Y-100483500D01*
X90236500Y-98366500D01*
X91263500Y-98366500D01*
X91263500Y-100483500D01*
G37*
%TD*%
D11*
%TO.C,J2*%
X65600000Y-123900000D03*
D12*
X65600000Y-126440000D03*
X65600000Y-128980000D03*
X65600000Y-131520000D03*
X65600000Y-134060000D03*
X65600000Y-136600000D03*
%TD*%
D13*
%TO.C,R4*%
X94900000Y-99650000D03*
X94900000Y-97650000D03*
%TD*%
D14*
%TO.C,J4*%
X83680000Y-98630000D03*
X92320000Y-98630000D03*
%TD*%
D15*
%TO.C,D2*%
X86200000Y-85800000D03*
X86200000Y-89800000D03*
%TD*%
D13*
%TO.C,R3*%
X81300000Y-99650000D03*
X81300000Y-97650000D03*
%TD*%
D16*
%TO.C,JP1*%
X89400000Y-88450000D03*
D17*
X89400000Y-87150000D03*
%TD*%
D18*
%TO.C,U1*%
X67680014Y-78849581D03*
X67680014Y-76309581D03*
X67680014Y-73769581D03*
X67680014Y-71229581D03*
X67680014Y-68689581D03*
X67680014Y-66149581D03*
X67680014Y-63609581D03*
X67680014Y-61069581D03*
X67680014Y-58529581D03*
X67680014Y-55989581D03*
X67680014Y-53449581D03*
X67680014Y-50909581D03*
X67680014Y-48369581D03*
X67680014Y-45829581D03*
X67680014Y-43289581D03*
X70220014Y-78849581D03*
X70220014Y-76309581D03*
X70220014Y-73769581D03*
X70220014Y-71229581D03*
X70220014Y-68689581D03*
X70220014Y-66149581D03*
X70220014Y-63609581D03*
X70220014Y-61069581D03*
X70220014Y-58529581D03*
X70220014Y-55989581D03*
X70220014Y-53449581D03*
X70220014Y-50909581D03*
X70220014Y-48369581D03*
X70220014Y-45829581D03*
X70220014Y-43289581D03*
%TD*%
D19*
%TO.C,J3*%
X65700000Y-109900000D03*
D20*
X65700000Y-111900000D03*
%TD*%
M02*
