%TF.GenerationSoftware,KiCad,Pcbnew,8.0.5*%
%TF.CreationDate,2024-10-19T20:06:34+05:30*%
%TF.ProjectId,AirOwl_v1,4169724f-776c-45f7-9631-2e6b69636164,rev?*%
%TF.SameCoordinates,Original*%
%TF.FileFunction,Soldermask,Top*%
%TF.FilePolarity,Negative*%
%FSLAX46Y46*%
G04 Gerber Fmt 4.6, Leading zero omitted, Abs format (unit mm)*
G04 Created by KiCad (PCBNEW 8.0.5) date 2024-10-19 20:06:34*
%MOMM*%
%LPD*%
G01*
G04 APERTURE LIST*
G04 Aperture macros list*
%AMRoundRect*
0 Rectangle with rounded corners*
0 $1 Rounding radius*
0 $2 $3 $4 $5 $6 $7 $8 $9 X,Y pos of 4 corners*
0 Add a 4 corners polygon primitive as box body*
4,1,4,$2,$3,$4,$5,$6,$7,$8,$9,$2,$3,0*
0 Add four circle primitives for the rounded corners*
1,1,$1+$1,$2,$3*
1,1,$1+$1,$4,$5*
1,1,$1+$1,$6,$7*
1,1,$1+$1,$8,$9*
0 Add four rect primitives between the rounded corners*
20,1,$1+$1,$2,$3,$4,$5,0*
20,1,$1+$1,$4,$5,$6,$7,0*
20,1,$1+$1,$6,$7,$8,$9,0*
20,1,$1+$1,$8,$9,$2,$3,0*%
G04 Aperture macros list end*
%ADD10RoundRect,0.250000X0.350000X0.450000X-0.350000X0.450000X-0.350000X-0.450000X0.350000X-0.450000X0*%
%ADD11R,1.700000X1.700000*%
%ADD12O,1.700000X1.700000*%
%ADD13O,1.152400X1.852400*%
%ADD14C,1.800000*%
%ADD15RoundRect,0.250000X-0.625000X0.350000X-0.625000X-0.350000X0.625000X-0.350000X0.625000X0.350000X0*%
%ADD16O,1.750000X1.200000*%
G04 APERTURE END LIST*
D10*
%TO.C,R2*%
X66600000Y-117400000D03*
X64600000Y-117400000D03*
%TD*%
%TO.C,R1*%
X66600000Y-119700000D03*
X64600000Y-119700000D03*
%TD*%
D11*
%TO.C,J2*%
X65600000Y-123900000D03*
D12*
X65600000Y-126440000D03*
X65600000Y-128980000D03*
X65600000Y-131520000D03*
X65600000Y-134060000D03*
X65600000Y-136600000D03*
%TD*%
D13*
%TO.C,J4*%
X83680000Y-98630000D03*
X92320000Y-98630000D03*
%TD*%
D14*
%TO.C,U1*%
X67680014Y-78849581D03*
X67680014Y-76309581D03*
X67680014Y-73769581D03*
X67680014Y-71229581D03*
X67680014Y-68689581D03*
X67680014Y-66149581D03*
X67680014Y-63609581D03*
X67680014Y-61069581D03*
X67680014Y-58529581D03*
X67680014Y-55989581D03*
X67680014Y-53449581D03*
X67680014Y-50909581D03*
X67680014Y-48369581D03*
X67680014Y-45829581D03*
X67680014Y-43289581D03*
X70220014Y-78849581D03*
X70220014Y-76309581D03*
X70220014Y-73769581D03*
X70220014Y-71229581D03*
X70220014Y-68689581D03*
X70220014Y-66149581D03*
X70220014Y-63609581D03*
X70220014Y-61069581D03*
X70220014Y-58529581D03*
X70220014Y-55989581D03*
X70220014Y-53449581D03*
X70220014Y-50909581D03*
X70220014Y-48369581D03*
X70220014Y-45829581D03*
X70220014Y-43289581D03*
%TD*%
D15*
%TO.C,J3*%
X65700000Y-109900000D03*
D16*
X65700000Y-111900000D03*
%TD*%
M02*
